<svg xmlns="http://www.w3.org/2000/svg" width="93.368" height="144.739"><g data-name="Group 454"><g data-name="Group 27"><g data-name="Group 69" fill="#fff"><path data-name="Path 542" d="M57.298 144.341h2.675a1.865 1.865 0 002.062-1.845l.976-11.716 4.628 11.753a2.149 2.149 0 002.242 1.554h1.122a2.148 2.148 0 002.241-1.554l4.628-11.753.977 11.716a1.816 1.816 0 002.025 1.845h2.713a1.663 1.663 0 001.844-2.061l-1.989-21.408a1.8 1.8 0 00-1.989-1.844h-3a2.184 2.184 0 00-2.242 1.518l-5.786 14.248-5.749-14.248a2.213 2.213 0 00-2.242-1.518h-3a1.834 1.834 0 00-2.025 1.844L55.42 142.28a1.7 1.7 0 001.881 2.061"/><path data-name="Path 543" d="M9.871 143.943H24.01a1.757 1.757 0 001.953-1.953v-1.773a1.756 1.756 0 00-1.953-1.953h-9.438v-17.682a1.772 1.772 0 00-1.953-1.953H9.871a1.756 1.756 0 00-1.953 1.953v21.407a1.757 1.757 0 001.953 1.953"/><path data-name="Path 544" d="M42.21 144.739a13.133 13.133 0 008.064-2.641c.94-.687.94-1.626.144-2.6l-1.157-1.375c-.8-.977-1.664-.977-2.749-.253a8.6 8.6 0 01-4.3 1.121 7.304 7.304 0 110-14.608 8.512 8.512 0 014.3 1.12c1.085.723 1.953.723 2.749-.252l1.157-1.375a1.684 1.684 0 00-.325-2.711 12.766 12.766 0 00-7.883-2.531c-8.534 0-13.994 6-13.994 13.054s5.46 13.055 13.994 13.055"/></g></g><g data-name="Group 28" fill="#fff"><path data-name="Path 545" d="M92.037 61.419a4.2 4.2 0 00-1.218-.855c-.255-.117-.481-.283-.745-.39a6.485 6.485 0 00-.861-.248l-1.563-.369a5.222 5.222 0 01-.764-.185 3.325 3.325 0 00-.516-.2c-.961-.221-1.958-.255-2.9-.555-.283-.089-.563-.089-.85-.167a2.182 2.182 0 01-1.224-.969c-.108-.164-.278-.4-.155-.578.138-.2.474-.219.69-.226.466-.014.976.083 1.433.023.4-.052.782-.09 1.187-.114a6.956 6.956 0 002.761-.619 21.992 21.992 0 004.151-2.48.956.956 0 00.393-.718 5.978 5.978 0 00-.022-1.678 4.948 4.948 0 00-1.992-3.081c-.521-.328-.945-.789-1.476-1.1-.555-.326-1.168-.578-1.751-.852a6.58 6.58 0 00-2.334-.788l-1.7-.3a3 3 0 01-1.289-.309c.012-.133-.011-.264.12-.369.74-.583 1.553-1.062 2.275-1.678.568-.485 1.383-.816 1.435-1.634a3.393 3.393 0 00-.417-2.208 8.531 8.531 0 00-.781-1.157 3.839 3.839 0 00-1.023-.773c-.36-.19-.719-.4-1.086-.581a8.777 8.777 0 00-2.56-.775 11.52 11.52 0 00-.941-.105 5.193 5.193 0 01-.887-.066 8 8 0 00-1.889-.231c-.892-.021-1.771.168-2.657.157-.76-.01-1.516.162-2.282.128a11.424 11.424 0 00-1.811.064.688.688 0 01-.754-.351c-.219-.512.206-.817.52-1.141.364-.376.708-.776 1.047-1.177a25.382 25.382 0 012.074-2.312c1.621-1.506 3.374-2.861 4.994-4.375a49.051 49.051 0 003.671-3.806 30.54 30.54 0 002.007-2.42c.251-.361.389-.792.661-1.127a14.026 14.026 0 001-1.386 12.065 12.065 0 01.979-1.468 2.52 2.52 0 00.549-.9 2.845 2.845 0 01.492-.872 2.589 2.589 0 00.355-.54 4.291 4.291 0 01.27-.727 4.417 4.417 0 00.43-.664c.256-.557.434-1.146.675-1.711a1.4 1.4 0 00-.318-1.6c-1.324-1.444-2.617-2.918-3.946-4.36a1.594 1.594 0 00-.676-.409c-.634-.205-1.027.232-1.5.447-1.318.607-2.764.971-3.83 2.069-.487.5-1 .988-1.464 1.513-.421.474-.788.988-1.194 1.475-.081.1-.155.2-.227.307a11.956 11.956 0 00-.98 1.817c-.206.438-.4.882-.565 1.334-.246.658-.45 1.315-.641 1.99-.121.423-.3.825-.406 1.248a84.67 84.67 0 00-.332 1.363 14.232 14.232 0 00-.252 1.475 4.47 4.47 0 01-.361 1 2.533 2.533 0 01-3.37 1.419 2.3 2.3 0 01-.922-1.245 12.773 12.773 0 01-.272-1.275c-.1-.359-.188-.7-.251-1.072-.026-.154-.051-.307-.064-.462s-.007-.333 0-.5c.007-.312.047-.631.04-.939.1-.852.257-1.7.3-2.558a24.167 24.167 0 01.491-3.874 2.454 2.454 0 00.05-.49 1.993 1.993 0 00-1.58-1.959 2.808 2.808 0 00-.742-.031c-.3.01-.611-.034-.92-.014a4.205 4.205 0 00-1.825.541 2.207 2.207 0 00-.484.323 2.952 2.952 0 00-.27.482c-.216.356-.479.68-.691 1.038a7.2 7.2 0 00-.727 4.067 1.674 1.674 0 00.071.469c.118.335.295.646.406.983.125.378.218.766.344 1.143q.312.927.662 1.837c.233.609.479 1.211.732 1.811.165.391.27.779.45 1.166.818 1.755 1.582 3.528 2.355 5.31a20.251 20.251 0 011.114 2.888c.043.166.306.566.135.718a.247.247 0 01-.121.047 1.224 1.224 0 01-.309.019.349.349 0 01-.127-.03.342.342 0 01-.108-.115 4.407 4.407 0 00-.555-.809 5.219 5.219 0 00-.841-.658c-.576-.371-1.2-.661-1.783-1.022-.211-.131-.378-.3-.58-.432a2.689 2.689 0 00-.865-.324c-.238-.062-.482-.1-.727-.139a51.645 51.645 0 00-1.747-.244 6.946 6.946 0 00-1.616-.121 32.326 32.326 0 01-3.364.376 3.8 3.8 0 01-.282-2.6 27.54 27.54 0 00.152-2.774c0-.388.124-.752.128-1.152a5.5 5.5 0 01.086-1.306c.05-.2.132-.387.179-.587.061-.261.045-.525.121-.783a5.3 5.3 0 00.135-.889 19 19 0 01.342-2.023l.09-.366a2.569 2.569 0 01.195-.72c.108-.174.28-.285.358-.488a5.986 5.986 0 00.327-1.06 6.047 6.047 0 01.36-1.038 3.89 3.89 0 01.134-.443 2.77 2.77 0 00.2-.434 4.742 4.742 0 01.2-.585 6.389 6.389 0 01.794-1.683c.142-.172.306-.325.437-.506a1.7 1.7 0 00.214-.612 2.821 2.821 0 01.335-.558 3.123 3.123 0 00.341-.683 7 7 0 011.031-1.847 9.308 9.308 0 00.777-1.1 2.155 2.155 0 01.764-1.02c.287-.171.571-.231.54-.646s-.371-.5-.7-.561c-.43.06-.587.411-.757.763a2.652 2.652 0 01-.312.424c-.147.2-.192.5-.349.711-.077.112-.195.2-.269.313a2.762 2.762 0 00-.13.32 4.583 4.583 0 01-.288.393c-.119.182-.236.365-.353.548s-.179.376-.3.535a6.684 6.684 0 00-.445.644c-.038.06-.075.118-.11.177s-.064.1-.091.155a6.1 6.1 0 00-.408 1.238 3.578 3.578 0 01-.253.558c-.125.283-.252.552-.4.822a24.43 24.43 0 00-1.105 2.192c-.135.306-.226.658-.381.948a2.377 2.377 0 00-.391 1.034 4.682 4.682 0 01-.149.614 4.515 4.515 0 01-.17.611c-.051.1-.116.2-.166.3a2.689 2.689 0 00-.128.317c-.1.268-.192.536-.288.8a5.253 5.253 0 00-.341 1.572 5.351 5.351 0 01-.2.882 6.012 6.012 0 01-.2.833c-.158.676-.317 1.355-.411 2.044-.024.172-.043.345-.081.514s-.091.334-.127.5a4.552 4.552 0 00-.042 1.032 7.9 7.9 0 01-.091 1.037 20.911 20.911 0 00-.207 2.114 4.832 4.832 0 01-.046 1.673 1.048 1.048 0 01-.865.688 3.421 3.421 0 00-1.507.4 1.876 1.876 0 01-.521.226 1.235 1.235 0 01-1.258-.475c-.69-.9-.967-2.009-1.606-2.926a2.038 2.038 0 01-.147-.471q-.078-.252-.157-.5c-.094-.3-.2-.579-.308-.875-.223-.634-.454-1.262-.653-1.9-.221-.708-.4-1.418-.689-2.106-.056-.137-.14-.269-.194-.405a2.664 2.664 0 01-.084-.514q-.091-.528-.233-1.043a15.145 15.145 0 00-.246-.775c-.076-.218-.1-.462-.161-.69a6.747 6.747 0 01-.193-1.127 6.544 6.544 0 00-.073-.841 5.147 5.147 0 00-.207-.629 3.568 3.568 0 01-.263-1.132 8.066 8.066 0 00-.211-1.029 4.85 4.85 0 01-.024-.755 12.007 12.007 0 00-.078-2.454 13.681 13.681 0 01-.067-1.889 16.822 16.822 0 01.017-2.276 7.234 7.234 0 01.119-.92c.024-.114.178-.472-.052-.479-.309-.01-.492.6-.583.815a4.05 4.05 0 00-.15.443c-.053.173-.1.349-.157.521a15.821 15.821 0 00-.462 1.789 7.963 7.963 0 00-.039 2.517c.121.836.028 1.683.1 2.53a9.89 9.89 0 00.148 1.03 16.67 16.67 0 00.552 2.14c.1.3.113.592.19.9a7.12 7.12 0 01.231 1.071 6.1 6.1 0 00.229.971c.086.324.179.644.282.962.143.449.3.893.445 1.339a6.611 6.611 0 01.2.747c.036.187.058.375.084.562a6.058 6.058 0 00.54 1.956 3.589 3.589 0 01.19.568l.847 2.631a1.968 1.968 0 00.158.4c.108.187.321.34.4.543.065.172.063.375.126.555a3.826 3.826 0 00.66 1.157c.141.172.369.585.255.816a.507.507 0 01-.218.2c-.238.138-.509.212-.754.335-.224.114-.427.267-.645.392a12.538 12.538 0 01-1.619.634 9.617 9.617 0 00-1.573.848 6.7 6.7 0 00-.571.4c-.374.3-.679.678-1.027 1.013-.23.224-.482.429-.732.634a2.214 2.214 0 01-.361.258 1.5 1.5 0 01-.741.151 3.467 3.467 0 00-.724-.056c-.155.034-.315.123-.46 0a.5.5 0 01-.1-.462c.16-.551.32-1.1.483-1.652.146-.511.247-1.015.4-1.525a5.13 5.13 0 01.248-.71c.094-.2.216-.391.31-.594a6.394 6.394 0 00.461-1.859 6.074 6.074 0 00.138-.785c.067-.371.136-.74.2-1.111a2.4 2.4 0 00.07-.5c-.006-.183-.036-.364-.027-.548.015-.294.042-.591.079-.884a6.433 6.433 0 00.112-1.2 6.991 6.991 0 00-.112-.86 11.143 11.143 0 00-.348-1.559c-.157-.455-.135-.937-.278-1.4-.138-.443-.334-.866-.491-1.3-.369-1.021-.516-2.106-.937-3.11a.414.414 0 00-.054-.13 6.234 6.234 0 00-2.707-3.572 12.577 12.577 0 01-2.512-1.782c-.372-.4-1.475-1.78-2.02-.917-.136.215-.29.414-.074.641a28.572 28.572 0 012.2 2.8 10.27 10.27 0 00.65 1.954 2.889 2.889 0 01.1.982l.034 1.125a5.4 5.4 0 01-.017.786 5.207 5.207 0 01-.206.84c-.123.4-.224.816-.369 1.208a9.846 9.846 0 01-.523 1 22.353 22.353 0 01-1.7 2.6c-.046.063-.269.129-.343.181a2.4 2.4 0 00-.3.265 4.3 4.3 0 01-.546.563c-.172.117-.379.17-.553.292a4.037 4.037 0 01-.474.361 4.452 4.452 0 01-.924.3 1.305 1.305 0 01-.557.043c-.37-.08-.62-.525-.758-.838a11.46 11.46 0 00-.5-1.048c-.089-.161-.226-.316-.3-.481-.061-.136-.1-.292-.153-.433-.3-.758-.605-1.519-.909-2.276a8.661 8.661 0 01-.476-1.225 8.979 8.979 0 01-.184-1.322q-.052-.621-.084-1.241c-.018-.361.03-.71.03-1.07.024-.726.047-1.455.118-2.179a5.9 5.9 0 00.044-2.316c-.074-.234-.078-.484-.143-.726a2.777 2.777 0 00-.332-.771 5.638 5.638 0 00-.375-.52q-.5-.634-.995-1.269a4.324 4.324 0 00-.974-.884 6.28 6.28 0 00-2.349-1c-.131-.026-.262-.053-.393-.077a5.812 5.812 0 00-2.972.083 3.869 3.869 0 00-1.2.641 12.664 12.664 0 01-1.018.825 7.556 7.556 0 00-1.191 1.042 2.362 2.362 0 00-.332.462c-.307.508-.615 1.015-.907 1.532s-.574 1.06-.835 1.6a5.4 5.4 0 00-.42 1.006 2.082 2.082 0 00.041.931 4.48 4.48 0 00.728 1.651 3.559 3.559 0 01.432.666 3.784 3.784 0 00.185.486c.091.151.219.285.325.427.285.384.568.772.85 1.16a4.35 4.35 0 01.38.593c.069.142.125.289.179.435.146.4.293.8.418 1.2a10.639 10.639 0 01.236 1.169 12.175 12.175 0 00.7 2.487 5.331 5.331 0 01.1.528 2.967 2.967 0 00.22.523 7.928 7.928 0 00.617.954q.8 1.094 1.612 2.181a4.343 4.343 0 01.325.486 3.9 3.9 0 01.228.533 6.174 6.174 0 01.243.808 2.752 2.752 0 00.238.68 9.582 9.582 0 01.357.943q.4 1.087.835 2.159a3.3 3.3 0 00.27.549c.106.162.238.306.344.469.157.244.206.54.356.777a5.086 5.086 0 01.4.8c.241.582.444 1.178.68 1.761a19.384 19.384 0 001.239 2.417c.409.7.734 1.448 1.139 2.159a10.8 10.8 0 00.86 1.351c.646.819 1.5 1.443 2.091 2.314s-.378.585-.874.408a8.514 8.514 0 01-1.559-.781c-.787-.483-1.532-1.034-2.353-1.457-.764-.393-1.586-.574-2.368-.9a12.869 12.869 0 00-3.6-1.135 12.578 12.578 0 00-4.155.31 4.11 4.11 0 00-1.7.749 2.386 2.386 0 00-.455 2.671 8.307 8.307 0 00.556 1.349 2.742 2.742 0 001.337 1.044 17.477 17.477 0 005.806 1.442 25.44 25.44 0 012.773.207c1.609.356 3.224.52 4.819.947q1.543.414 3.082.846c.513.145 1.022.3 1.536.438.485.13.5.328.412.779-.1.547-.192 1.085-.329 1.625l-.235.912a10 10 0 01-.463 1.323 2.468 2.468 0 01-.282.68c-.17.154-.3 0-.535-.075a5.487 5.487 0 00-2.755.086c-.894.18-1.806.324-2.689.548-.421.106-.833.242-1.257.331a8.527 8.527 0 01-1.173.074 30.886 30.886 0 00-3.128.535c-2.828.5-5.638 1.045-8.469 1.521a27.12 27.12 0 01-4.5.533.79.79 0 01-.52-.106.4.4 0 01-.128-.43c.126-.366.619-.723.9-.963l1.258-1.066.942-.728c.818-.478 1.618-.972 2.443-1.434a26.3 26.3 0 015.14-2.283 10.564 10.564 0 012.71-.582c1.295-.034 2.579-.192 3.872-.106a37.742 37.742 0 017.527 1.683c.253.07.488.062.531-.245.09-.643-.008-1.8-.836-1.927-1.239-.185-2.491-.5-3.715-.766a35.185 35.185 0 00-3.9-.667 15.934 15.934 0 00-7.2.84A36.09 36.09 0 005.8 53.058a24.648 24.648 0 00-2.889 1.827A16.148 16.148 0 00.26 57.556a1.179 1.179 0 00-.243.423c-.079.329.315.807.476 1.079.039.279.281.441.41.668 1.062 1.866 3.607 1.1 5.31.779q2.26-.432 4.518-.89a20.249 20.249 0 012.157-.423 9.747 9.747 0 012.142-.184.773.773 0 01.084.293.168.168 0 01-.009.092c-.1.221-.63.3-.837.376-.332.123-.663.251-.991.386q-.957.391-1.884.846a24.14 24.14 0 00-1.722.908 16.652 16.652 0 00-1.919 1.533c-.315.255-.644.491-.933.772a8.086 8.086 0 00-.421.447l-1 1.117a13.97 13.97 0 00-1.017 1.229c-.557.786-.825 1.755-1.381 2.562a8.541 8.541 0 00-.563.811 9.147 9.147 0 00-.42 1.212l-.864 2.522a1.651 1.651 0 00-.125.583c.017.594.7 1.211 1.108 1.573.065.056.11.14.172.2.674.682 1.151-.266 1.553-.689.488-.513.945-1.075 1.447-1.569a17.315 17.315 0 011.751-1.364q1.945-1.463 3.984-2.8a14.483 14.483 0 012.06-1.176c.761-.339 1.521-.676 2.253-1.073.3-.16.59-.32.894-.464.889-.421 1.837-.7 2.759-1.045 1.933-.723 3.785-1.74 5.824-2.04.229-.036.469-.095.611.141a.5.5 0 01.057.175 5.01 5.01 0 01-.242 1.786c-.088.487.077 1.041.042 1.561a5.47 5.47 0 01-.251 1.518c-.2.551-.776.571-1.289.577a7.669 7.669 0 00-1.479.2c-.391.082-.771.1-1.157.161a18.089 18.089 0 00-2.717.8 29.75 29.75 0 00-5.243 2.285 26.294 26.294 0 00-3.257 2.385 11.077 11.077 0 00-2.565 2.855 2.1 2.1 0 00-.239.484 1.466 1.466 0 00-.064.405 4.938 4.938 0 001.19 2.747 12.218 12.218 0 002.078 2.054 2.743 2.743 0 001.723.764 6.677 6.677 0 001.934-.45 10.493 10.493 0 003.395-1.921c.722-.616 1.5-1.16 2.18-1.823a8.373 8.373 0 01.95-.961 4.442 4.442 0 001.021-.975c.142-.19.266-.391.41-.58a7.951 7.951 0 01.862-.937l1.774-1.742c.143-.14.35-.293.526-.2a.479.479 0 01.18.388c.036.27.069.541.1.813.084.659.007 1.3.047 1.942a5.992 5.992 0 00.229 1.5 2.606 2.606 0 01.1.508c.074.578.15 1.156.259 1.73a8.835 8.835 0 00.362 1.666c.32.82.558 1.649.892 2.463.351.853.745 1.688 1.162 2.511.307.609.628 1.209.956 1.806a6.872 6.872 0 00.346.661 3.008 3.008 0 00.73.585 2.049 2.049 0 001.1.252 3.027 3.027 0 001.237-.228 3.819 3.819 0 001.394-1.213 1.658 1.658 0 01.359-.278c.224-.147.443-.442.725-.324a2.245 2.245 0 01.7.688 1.778 1.778 0 01.128.214c.751 1.239 1.624 1.706 2.67 1.2a7.83 7.83 0 001.76-1.136 3.09 3.09 0 001.2-1.631 5.106 5.106 0 01.074-.674.564.564 0 01.461-.462.59.59 0 01.443.251 3.294 3.294 0 01.371.65 7.884 7.884 0 001.865 2.624 3.062 3.062 0 001.683.758 3.584 3.584 0 00.534-.028 3.8 3.8 0 001.668-.552 4.639 4.639 0 001.209-1.263 6.908 6.908 0 001.331-2.649 7 7 0 00.078-.918c.048-1.227.076-2.462.186-3.682.03-.337.193-.7.249-1.04.059-.365.1-.734.162-1.1.057-.349.108-.7.19-1.039a8.366 8.366 0 01.371-1.009 5.02 5.02 0 01.958-1.9 2.328 2.328 0 011.032-.655 6.388 6.388 0 011.426-.413c.644-.015 1.281-.112 1.925-.145.295-.014.572.032.861.031a8.407 8.407 0 013.892.888c.9.449 1.457 1.381 2.275 1.95a7.125 7.125 0 002.966.922c1.124.182 2.264.285 3.373.551a8.356 8.356 0 002.562.168 25.409 25.409 0 012.985-.293 9.906 9.906 0 004.317-1.016 11.424 11.424 0 003.256-2.507 1.682 1.682 0 00.446-1.856c-.218-.715-.779-1.007-1.375-1.366a5.59 5.59 0 00-2.277-.711 16.064 16.064 0 00-2.72.011 20.18 20.18 0 01-4.79-.059c-.19-.035-.485.074-.54-.142-.044-.17.161-.369.291-.546a13.915 13.915 0 012.676-2.359 10.7 10.7 0 013.854-2.04 14.436 14.436 0 014.386-.345 17 17 0 004.22.013 8.873 8.873 0 003.116-.888 3.026 3.026 0 001.658-2.2 2.439 2.439 0 00-.173-.944c-.1-.257-.143-.526-.241-.788a4.113 4.113 0 00-.917-1.477m-23.79-31.688a17.327 17.327 0 01-.782-1.921 11.319 11.319 0 00-.58-1.419c-.194-.459-.46-.881-.644-1.355a33.668 33.668 0 00-1.449-3.239c-.252-.491-.6-.968-.817-1.471-.232-.539-.352-1.16-.541-1.718-.2-.58-.477-1.151-.645-1.736-.313-1.1-.533-2.237-.819-3.349a3.29 3.29 0 01.4-2.711 2.344 2.344 0 011.851-1.173c.422.005.538.113.585.519.053.447 0 .9.045 1.336a7.909 7.909 0 01.019 1.535 6.9 6.9 0 01-.14 1.187 6.453 6.453 0 00-.249 1.224 10.192 10.192 0 00.334 3.014 10.784 10.784 0 00.966 2.826c.035.067.074.133.112.2a4.957 4.957 0 002.7 2.286 4.011 4.011 0 003.327-.538 3.5 3.5 0 001.126-1.584 5.52 5.52 0 00.411-1.268c.043-.227.064-.452.088-.681a3.441 3.441 0 01.149-.544c.251-.946.394-1.921.727-2.845.43-1.188.754-2.412 1.276-3.572a10.68 10.68 0 011.021-1.557 14.027 14.027 0 011.18-1.424 8.165 8.165 0 014.149-2.83 2.136 2.136 0 012.145.437 8.009 8.009 0 011.416 1.613 3.538 3.538 0 01.417.99 1.785 1.785 0 01-.234 1.114 3.384 3.384 0 01-.646.959 8.66 8.66 0 00-.748 1.1c-.2.319-.342.691-.564.99-.071.1-.157.182-.231.278a3.727 3.727 0 00-.4.758 4.433 4.433 0 01-.425.661c-.341.493-.68 1-1.015 1.5a18.639 18.639 0 01-2.277 2.987c-.319.315-.624.642-.928.968-.27.29-.482.619-.754.907-.327.346-.7.631-1.014.992a12.493 12.493 0 01-1.219 1.14q-.981.892-1.991 1.749a21.369 21.369 0 01-1.856 1.626 1.2 1.2 0 00-.35.291 8.447 8.447 0 01-1.032 1.058 4.677 4.677 0 01-1.1.894c-.143.069-.225.2-.379.263-.338.13-.511-.188-.623-.458M12.038 7.69c.035-.062.074-.126.113-.186a5.853 5.853 0 011.073-1.115 13.251 13.251 0 011.16-.956 4.269 4.269 0 012.393-.829 6.1 6.1 0 012.376.519 2.827 2.827 0 01.777.612 6.258 6.258 0 01.6.636 3.967 3.967 0 01.689 1.8 8.255 8.255 0 01.067 2.057 16.932 16.932 0 00-.006 2.087 2.619 2.619 0 01-.016.437 3.989 3.989 0 01-.089.4 4.238 4.238 0 00-.025 1.919 4.36 4.36 0 01.141 1.138 3.108 3.108 0 00.4 1.088 2.869 2.869 0 01.245.788c.018.179.005.359.039.535a1.854 1.854 0 00.134.387 13.3 13.3 0 001.2 2.288c.3.442.466.963.736 1.425.119.2.256.39.4.58a2.378 2.378 0 00.915.907 2.13 2.13 0 001.193.062 8.054 8.054 0 001.612-.523 3.542 3.542 0 001.347-.877c.192-.207.358-.437.557-.639.555-.561 1.339-.833 1.712-1.579.03-.059.059-.121.091-.18a.277.277 0 00.059-.1.783.783 0 01.2-.232 3.161 3.161 0 00.464-.6 4.182 4.182 0 00.447-.683 4.948 4.948 0 00.248-.771c.1-.32.214-.639.32-.96a4.532 4.532 0 00.317-2.468 13.541 13.541 0 00-.172-1.841 1.489 1.489 0 00-.3-.663 1.164 1.164 0 01-.242-.726c.006-.487.426-.45.764-.247 1.2.719 1.563 2.441 1.917 3.678.337 1.174.7 2.34 1.051 3.513.175.586.357 1.174.48 1.776.12.583.071 1.187.186 1.758a7.952 7.952 0 01.022 1.824 13.233 13.233 0 01-.19 1.8 11.8 11.8 0 01-.192 1.511 9.275 9.275 0 01-.577 1.33c-.157.312-.321.58-.447.9-.147.385-.267.78-.375 1.177-.18.673-.322 1.356-.533 2.022a8.628 8.628 0 01-.486 1.669 8.713 8.713 0 00-.475 1.192c-.2.542-.455 1.05-.665 1.581a14.7 14.7 0 00-.82 3.254 5.861 5.861 0 01-.175.847c-.055.186-.128.366-.2.546a1.639 1.639 0 01-.183.449l-.216.529a6.571 6.571 0 01-.435.932c-.238.4-.414.839-.613 1.262a4.678 4.678 0 01-.544 1.073.835.835 0 01-.162.15.915.915 0 01-.591.09c-.45-.039-.686-.371-.983-.666s-.626-.6-.953-.879c-.225-.2-.469-.323-.681-.546a6.788 6.788 0 01-.577-.7c-.356-.483-.68-.99-1.079-1.442a6.132 6.132 0 01-.783-.911 7.614 7.614 0 00-.607-1.051c-.143-.175-.309-.33-.453-.5a5.7 5.7 0 01-.726-1.338 22.191 22.191 0 00-1.194-2.292 4.974 4.974 0 01-.305-.932c-.135-.365-.333-.7-.476-1.062q-.361-.906-.723-1.809c-.11-.279-.267-.517-.36-.8-.1-.3-.185-.6-.255-.9-.057-.246-.1-.495-.177-.735a7.373 7.373 0 00-.642-1.413 43.57 43.57 0 00-1.508-2.614 48.147 48.147 0 01-1.347-2.29l-.332-.587a5.246 5.246 0 01-.577-1.045c-.081-.294-.089-.606-.191-.9-.119-.355-.079-.753-.215-1.1a7.069 7.069 0 01-.27-.924 14.5 14.5 0 00-.724-2.178 12.99 12.99 0 00-.585-1.278c-.238-.427-.581-.776-.853-1.182a23.522 23.522 0 01-.788-1.3 2.657 2.657 0 01-.44-1.491c.005-.324.013-.648.019-.973a1.04 1.04 0 01.02-.221 1.118 1.118 0 01.082-.207c.2-.4.37-.808.562-1.209.134-.278.261-.593.415-.869m11.085 64.568a3.368 3.368 0 011.194-.1c.428.125.354.542.106.819a31.987 31.987 0 01-2.826 2.933 20.313 20.313 0 00-1.784 1.525q-.831.9-1.673 1.8-.459.486-.923.965a8.574 8.574 0 01-1.251 1.121 8.946 8.946 0 01-1.09.611c-.654.33-1.346.624-1.978.993a2.506 2.506 0 01-2.568-.03 2.934 2.934 0 01-1.164-1.057 2.126 2.126 0 01-.154-1.677 4.09 4.09 0 01.092-.408 5.045 5.045 0 011.643-2.105 12.277 12.277 0 012.287-1.783c1-.573 2.122-.922 3.137-1.477a8.615 8.615 0 011.8-.866 9.275 9.275 0 00.939-.249c.358-.139.722-.26 1.086-.373a16.593 16.593 0 013.125-.634m.757-11.92a6.248 6.248 0 011.45.263c.175.056.371.142.425.319a.409.409 0 01-.135.4 1.211 1.211 0 01-.389.218c-1.489.6-3 1.18-4.479 1.774-.38.152-.761.31-1.137.469q-1.1.469-2.189.982-2.169 1.022-4.257 2.211c-.4.226-.691.527-1.074.756s-.793.378-1.186.57a24.078 24.078 0 00-2.288 1.13 19.563 19.563 0 00-1.966 1.486 5.677 5.677 0 01-1.985 1.339c-.666.132-.126-1.337-.03-1.589a15.364 15.364 0 011.768-3.106c.175-.251.358-.5.551-.739a9.019 9.019 0 011.919-1.761 29.175 29.175 0 012.861-1.992c1.032-.534 2.145-.89 3.193-1.386a12.084 12.084 0 011.489-.661 7.582 7.582 0 011.049-.237 31.834 31.834 0 014.063-.429 20.741 20.741 0 012.346-.022m3.475-12.616c.34.148 1.276.431 1.22.917a12 12 0 01-2.528-.564c-1.5-.346-2.929-.9-4.439-1.171l-2.427-.431c-.762-.136-1.479-.167-2.243-.242s-1.518-.156-2.275-.268a17.616 17.616 0 01-4.324-1.146c-.339-.147-1.141-.526-1.081-1.005.041-.326.619-.653.872-.8a5.344 5.344 0 011.634-.391 14.832 14.832 0 012.609-.212 9.163 9.163 0 012.555.568 14.527 14.527 0 011.982.548c.428.2.926.354 1.365.6.5.279.947.637 1.436.934a12.939 12.939 0 001.241.641 166 166 0 004.4 2.021m47.664 19.591A15.2 15.2 0 0072.2 69.36a7.443 7.443 0 01-1.36.89q-.734.472-1.44.987a10 10 0 00-.844.674c-.19.174-.369.36-.572.52-.586.464-1.332.7-1.89 1.2a1.267 1.267 0 00.1 1.947c.1.1.2.195.292.3.3.334.484.78.807 1.079a1.753 1.753 0 001.227.389 40.887 40.887 0 005.936-.816 20.131 20.131 0 002.307-.526 20.537 20.537 0 012.4-.469 6.178 6.178 0 01.968-.1 6.1 6.1 0 011.075.14l1.015.192a.721.721 0 01.326.12.476.476 0 01.1.548 1.149 1.149 0 01-.393.439 5.741 5.741 0 01-1.872.876 8.85 8.85 0 01-.885.2c-.375.066-.752.1-1.132.145-.765.082-1.531.162-2.3.245-.724.077-1.451.192-2.18.254a7.732 7.732 0 01-1.754-.155c-1.257-.184-2.5-.463-3.75-.678a10.8 10.8 0 01-4.324-1.33 20.1 20.1 0 00-1.886-1.071 5.85 5.85 0 00-1.76-.583c-.577-.092-1.156-.034-1.733-.1a11.9 11.9 0 00-3.752.066 6.769 6.769 0 00-1.669.568 3.439 3.439 0 00-1.936 1.828 14.788 14.788 0 00-1.137 3.257 64.3 64.3 0 00-.808 7.1 6.531 6.531 0 01-.445 2.212 3.183 3.183 0 01-.582.981c-.292.235-.72.376-1.039.589-1.562 1.051-2.538-1.332-3.014-2.4q-.184-.413-.369-.823a15.815 15.815 0 01-.794-1.712c-.177-.582-.334-1.178-.52-1.761a1.639 1.639 0 00-1.1-1.2c-.324-.1-.654-.321-.959-.044a1 1 0 00-.243 1.069 5.655 5.655 0 01.184 2.184 15.536 15.536 0 00.071 2.015c0 .54-.212.7-.563 1.064a4.229 4.229 0 01-.924.83c-.467.263-1 .725-1.541.411-.587-.343-.838-1.279-1.034-1.894a7.749 7.749 0 00-.253-.75c-.179-.4-.459-.759-.632-1.166a7.419 7.419 0 01-.3-1.347 11.225 11.225 0 00-.268-1.066 5.6 5.6 0 01-.125-1.169c-.013-.146-.023-.293-.047-.437a1.285 1.285 0 00-.239-.729 2.681 2.681 0 00-1.491-.832c-.723-.13-.522 1.055-.531 1.455a4.2 4.2 0 00.049.973c.085.415.293.8.408 1.2a5.59 5.59 0 01.141.846l.138 1.209a4.574 4.574 0 01-.341 2.938 1.784 1.784 0 01-.993.811 1.086 1.086 0 01-1.143-.4 18.951 18.951 0 01-1.3-2.536 7.696 7.696 0 00-.189-.43c-.115-.229-.259-.443-.386-.667a8.778 8.778 0 01-.814-2.276c-.183-.751-.282-1.518-.447-2.275-.059-.281-.059-.572-.145-.85-.1-.33-.282-.631-.375-.967a4.486 4.486 0 01-.113-.8c-.049-.519-.167-1.021-.246-1.533-.071-.462-.069-.96-.116-1.431-.12-1.159-.137-2.387-.363-3.529a10.8 10.8 0 01.017-3.125c.13-1.381.089-2.771.234-4.149.061-.588.257-1.113.343-1.681a18.464 18.464 0 00.3-2.931 4.841 4.841 0 01.306-1.727c.148-.4.219-.8.346-1.2a6.636 6.636 0 00.335-1.267c.039-.345.185-.644.224-.993a18.516 18.516 0 011.5-5.54 16.766 16.766 0 001.164-2.811c.112-.452.181-.913.318-1.356a7.281 7.281 0 01.67-1.309q.814-1.491 1.63-2.981c.179-.324.356-.651.5-.992.13-.305.233-.624.392-.919a5.6 5.6 0 01.785-1.045 2.625 2.625 0 01.824-.727c.32-.145.681-.074 1.022-.2a3.878 3.878 0 001.187-.828c.337-.3.747-.479 1.069-.823a5.9 5.9 0 01.855-.857 4.271 4.271 0 00.7-.488 9.985 9.985 0 011.658-1.123 13.049 13.049 0 012.085-1.278 16.348 16.348 0 013.249-1.3 5.422 5.422 0 001.481-.4 5.9 5.9 0 01.569-.313 2.714 2.714 0 01.678-.136 22 22 0 003.4-.857 12.505 12.505 0 013.389-.5 12.321 12.321 0 014.211.8 1.191 1.191 0 01.2.109 8.665 8.665 0 011.907 1.621 12.014 12.014 0 011.333 2.23 11.776 11.776 0 01.879 1.887c.106.324.184.66.313.977a3.039 3.039 0 001.282 1.512c.922.53 1.725.208 2.694.142 1.124-.074 2.256-.025 3.379-.13a10.019 10.019 0 011.97 0 16.631 16.631 0 002.376.162 7.929 7.929 0 013.749.919c.448.221.873.651.445 1.129a9.9 9.9 0 01-3.123 2.232 11.93 11.93 0 00-1.888 1.006 2.179 2.179 0 00-.785 1.381 3.22 3.22 0 00-.107.935 1.647 1.647 0 00.617 1.466 2.246 2.246 0 001.625.14 10.822 10.822 0 012.049-.019 25.847 25.847 0 014.078.749 10.576 10.576 0 012.77 1.106 11.777 11.777 0 011.267.84 3.448 3.448 0 01.894.853.565.565 0 01-.079.564 1.686 1.686 0 01-.455.384 12.311 12.311 0 01-3.112 1.206 7.253 7.253 0 01-1.536.479 12.372 12.372 0 01-1.79-.022q-1.353-.073-2.707-.056c-.456.006-.866.1-1.308.136a10.132 10.132 0 01-1.683-.119q-1.736-.131-3.474-.231a21.893 21.893 0 01-2.564-.16c-.533-.1-1.025.021-1.037.665a4.35 4.35 0 00.337 2.137 1.191 1.191 0 001 .725 3.058 3.058 0 01.973.309 14.959 14.959 0 013.712 2.283 4.794 4.794 0 002.521 1.417 6.648 6.648 0 011.435.315 5.89 5.89 0 001.44.113c1.115.073 2.219.25 3.322.427q1.367.22 2.734.444a11.247 11.247 0 011.621.349 11.381 11.381 0 012.038.949.259.259 0 01.14.132c.03.1-.061.187-.147.239a2.646 2.646 0 01-.775.276 22.266 22.266 0 01-5.938.771c-1.273-.046-2.536-.277-3.808-.294a6.626 6.626 0 00-2.969.56 7.519 7.519 0 00-1.162.861q-.715.534-1.465 1.016"/><path data-name="Path 547" d="M44.756 39.118a.731.731 0 00-.218-.218.873.873 0 00-.315-.155.587.587 0 00-.727.518.447.447 0 00.021.253.606.606 0 00.261.249.629.629 0 00.773.033.534.534 0 00.2-.68"/><path data-name="Path 548" d="M46.242 47.107c.324.007.444-.331.412-.6a.788.788 0 00-.729-.654c-.3-.03-.4.212-.377.44.037.421.217.8.694.816"/><path data-name="Path 549" d="M48.91 39.282a.548.548 0 001.027.261c.214-.417-.147-.651-.5-.723-.33-.067-.51.179-.525.462"/><path data-name="Path 550" d="M50.853 51.724a4.1 4.1 0 01-2.611.359c-.894-.125-1.8-.243-2.7-.346a17.787 17.787 0 01-2.117-.487 5.423 5.423 0 01-.561-.162 5.502 5.502 0 01-.506-.229c-.186-.091-.777-.252-.468-.484.272-.206.454-.11.751-.023s.587.168.883.239a13.594 13.594 0 001.933.333c.509.044 1.02.042 1.529.089a7.619 7.619 0 003.542-.14.362.362 0 01.5.221c.056.213.123.461-.18.63"/></g></g></svg>