<svg xmlns="http://www.w3.org/2000/svg" width="308.723" height="71.76"><g data-name="Group 203"><g data-name="Group 8"><g data-name="Group 7" fill="#fff"><path data-name="Path 18" d="M164.537 60.937h4.122a2.872 2.872 0 003.175-2.841l1.5-18.046 7.129 18.1a3.309 3.309 0 003.453 2.4h1.728a3.309 3.309 0 003.453-2.4l7.129-18.1 1.5 18.046a2.8 2.8 0 003.119 2.841h4.178c2 0 3.064-1.115 2.841-3.175l-3.055-32.974a2.78 2.78 0 00-3.063-2.841h-4.623a3.365 3.365 0 00-3.453 2.339l-8.912 21.947-8.858-21.945a3.407 3.407 0 00-3.453-2.339h-4.623a2.826 2.826 0 00-3.119 2.841l-3.064 32.974c-.167 2.06.892 3.175 2.9 3.175"/><path data-name="Path 19" d="M91.484 60.323h21.779a2.7 2.7 0 003.008-3.008v-2.729a2.7 2.7 0 00-3.008-3.008H98.725V24.342a2.729 2.729 0 00-3.008-3.008h-4.233a2.7 2.7 0 00-3.008 3.008v32.974a2.7 2.7 0 003.008 3.008"/><path data-name="Path 20" d="M141.297 61.55a20.228 20.228 0 0012.421-4.067c1.448-1.057 1.448-2.506.223-4.01l-1.783-2.117c-1.226-1.5-2.562-1.5-4.233-.39a13.245 13.245 0 01-6.628 1.726 11.251 11.251 0 110-22.5 13.1 13.1 0 016.628 1.726c1.671 1.115 3.008 1.115 4.233-.39l1.783-2.117c1.225-1.5 1.114-3.064-.5-4.177a19.658 19.658 0 00-12.143-3.9c-13.145 0-21.556 9.246-21.556 20.108s8.412 20.108 21.556 20.108"/><path data-name="Path 21" d="M273.934 60.596h.871a.607.607 0 00.671-.6l.317-3.814 1.507 3.825a.7.7 0 00.731.507h.364a.7.7 0 00.73-.507l1.507-3.825.317 3.814a.591.591 0 00.659.6h.883a.541.541 0 00.6-.671l-.647-6.969a.587.587 0 00-.647-.6h-.977a.712.712 0 00-.731.494l-1.883 4.639-1.872-4.639a.721.721 0 00-.73-.494h-.975a.6.6 0 00-.659.6l-.647 6.969a.553.553 0 00.612.671m-6.9.13a3.221 3.221 0 003.485-3.284v-4.45a.571.571 0 00-.635-.635h-.883a.571.571 0 00-.635.635v4.45a1.3 1.3 0 01-1.331 1.413 1.288 1.288 0 01-1.32-1.413v-4.45a.571.571 0 00-.634-.635h-.895a.572.572 0 00-.636.635v4.45a3.215 3.215 0 003.478 3.28m-7.195-6.523a.571.571 0 00.636-.635v-.576a.571.571 0 00-.636-.635h-4.449a.571.571 0 00-.635.635v6.969a.571.571 0 00.635.636h4.449a.572.572 0 00.636-.636v-.576a.571.571 0 00-.636-.635h-2.92v-1.415h2.449a.58.58 0 00.648-.635v-.389a.58.58 0 00-.648-.635h-2.444v-1.473zm-10.814 6.523c1.778 0 3.249-.836 3.249-2.519-.023-1.1-.623-1.92-2.342-2.509l-.99-.353c-.624-.224-.777-.494-.777-.753 0-.448.447-.684.942-.684a1.006 1.006 0 01.884.412c.247.307.459.447.823.342l.554-.153a.525.525 0 00.376-.812 2.811 2.811 0 00-2.672-1.47c-1.708 0-3.025.987-3.025 2.529.023 1.508 1.612 2.144 2.306 2.367l1 .365c.613.2.813.5.813.8 0 .483-.46.754-1.143.754a1.522 1.522 0 01-1.353-.647c-.212-.342-.412-.5-.777-.412l-.588.14a.548.548 0 00-.459.778 3.168 3.168 0 003.179 1.825m-9.348 0a3.221 3.221 0 003.484-3.284v-4.45a.571.571 0 00-.636-.635h-.882a.571.571 0 00-.636.635v4.45a1.3 1.3 0 01-1.331 1.413 1.287 1.287 0 01-1.32-1.413v-4.45a.571.571 0 00-.636-.635h-.893a.571.571 0 00-.636.635v4.45a3.215 3.215 0 003.486 3.284m-15.435-.13h.871a.607.607 0 00.671-.6l.318-3.814 1.507 3.825a.7.7 0 00.729.507h.365a.7.7 0 00.73-.507l1.506-3.825.318 3.814a.592.592 0 00.659.6h.884a.541.541 0 00.6-.671l-.647-6.969a.587.587 0 00-.648-.6h-.977a.712.712 0 00-.731.494l-1.882 4.639-1.872-4.639a.721.721 0 00-.73-.494h-.979a.6.6 0 00-.659.6l-.641 6.97a.553.553 0 00.612.671"/><path data-name="Path 22" d="M305.475 45.867c1.778 0 3.249-.835 3.249-2.518-.024-1.1-.624-1.919-2.342-2.508l-.99-.354c-.624-.224-.777-.5-.777-.754 0-.447.447-.683.942-.683a1.006 1.006 0 01.884.413c.247.306.459.448.824.341l.553-.153a.524.524 0 00.376-.812 2.81 2.81 0 00-2.672-1.471c-1.707 0-3.025.988-3.025 2.53.023 1.506 1.612 2.143 2.306 2.367l1 .365c.614.2.813.494.813.8 0 .482-.46.753-1.143.753a1.523 1.523 0 01-1.354-.647c-.212-.342-.412-.494-.777-.412l-.588.142a.549.549 0 00-.459.777 3.169 3.169 0 003.179 1.823m-7.205-4.757a3.359 3.359 0 001.483-2.684 1.142 1.142 0 00-1.152-1.2 1.038 1.038 0 00-1.143 1.06.9.9 0 00.813.929 1.023 1.023 0 00.189 0 1.861 1.861 0 01-.695 1.2.329.329 0 00-.071.494l.071.106a.341.341 0 00.506.094m-10.278 4.627h.894a.576.576 0 00.635-.636v-3.814l2.9 4.05a.858.858 0 00.765.4h.542a.571.571 0 00.635-.636v-6.968a.571.571 0 00-.635-.636h-.895a.571.571 0 00-.635.636v3.755l-2.874-3.991a.888.888 0 00-.776-.4h-.553a.572.572 0 00-.636.636v6.968a.572.572 0 00.636.636m-4.451-6.393a.572.572 0 00.636-.636v-.576a.571.571 0 00-.636-.635h-4.453a.571.571 0 00-.636.635v6.97a.571.571 0 00.636.635h4.45a.571.571 0 00.636-.635v-.576a.571.571 0 00-.636-.635h-2.92v-1.413h2.449a.58.58 0 00.647-.635v-.388a.58.58 0 00-.647-.635h-2.449v-1.473zm-13.045 2.015v-2.015h1.442a1.013 1.013 0 010 2.015zm3.474 4.509a3.459 3.459 0 001.507-.33.566.566 0 00.224-.836l-.142-.283c-.176-.365-.294-.447-.671-.33a1.413 1.413 0 01-.518.083c-.577 0-1-.613-1.108-1.425a2.383 2.383 0 001.767-2.449 2.671 2.671 0 00-2.838-2.8h-3.226a.572.572 0 00-.636.636v6.97a.571.571 0 00.635.636h.894a.577.577 0 00.636-.636v-2.225h.848c.094.883.541 2.99 2.625 2.99zm-13.732-1.976v-4.546h1.143a2.273 2.273 0 110 4.546zm-1.53 1.847h2.943a4.12 4.12 0 100-8.24h-2.943a.571.571 0 00-.635.635v6.97a.571.571 0 00.635.635m-8.43 0h4.6a.571.571 0 00.635-.635v-.576a.571.571 0 00-.635-.635h-3.073v-5.757a.577.577 0 00-.635-.636h-.895a.571.571 0 00-.634.636v6.969a.571.571 0 00.634.635m-5.568 0h.894a.577.577 0 00.635-.636v-6.968a.577.577 0 00-.635-.636h-.894a.572.572 0 00-.636.636v6.968a.572.572 0 00.636.636m-10.255 0h.893a.577.577 0 00.636-.636v-2.426h2.757v2.425a.572.572 0 00.635.636h.883a.571.571 0 00.635-.636v-6.968a.571.571 0 00-.635-.636h-.883a.572.572 0 00-.635.636v2.778h-2.757v-2.778a.577.577 0 00-.636-.636h-.893a.571.571 0 00-.636.636v6.968a.571.571 0 00.636.636m-6.465.13a4.282 4.282 0 002.626-.858c.305-.224.305-.529.046-.847l-.377-.448c-.258-.317-.542-.317-.894-.082a2.8 2.8 0 01-1.4.365 2.38 2.38 0 110-4.759 2.773 2.773 0 011.4.365c.352.235.636.235.894-.082l.377-.447a.548.548 0 00-.106-.883 4.153 4.153 0 00-2.566-.823 4.26 4.26 0 100 8.5"/><path data-name="Path 23" d="M295.409 27.723l1.047-2.825 1 2.825zm-2.355 3.155h.906a.689.689 0 00.718-.506l.353-.954h2.826l.365.966a.724.724 0 00.729.494h.953c.471 0 .659-.294.495-.73l-2.755-7.016a.716.716 0 00-.73-.5H296a.73.73 0 00-.741.5l-2.7 7.016c-.177.436.023.73.494.73m-9.266 0h.893a.577.577 0 00.636-.636v-3.814l2.9 4.049a.859.859 0 00.765.4h.541a.572.572 0 00.636-.636v-6.968a.572.572 0 00-.636-.636h-.893a.572.572 0 00-.636.636v3.755l-2.874-3.99a.892.892 0 00-.777-.4h-.553a.572.572 0 00-.636.636v6.968a.572.572 0 00.636.636m-8.007-3.155l1.048-2.825 1 2.825zm-2.353 3.155h.906a.69.69 0 00.718-.506l.354-.954h2.825l.365.966a.726.726 0 00.73.494h.953c.471 0 .659-.294.494-.73l-2.754-7.016a.716.716 0 00-.731-.5h-.918a.729.729 0 00-.741.5l-2.7 7.016c-.177.436.023.73.495.73m-4.887 0h.895a.576.576 0 00.634-.636v-6.969a.576.576 0 00-.634-.636h-.895a.572.572 0 00-.636.636v6.969a.572.572 0 00.636.636m-6.841.13c1.778 0 3.249-.836 3.249-2.518-.024-1.1-.624-1.92-2.342-2.509l-.99-.354c-.624-.224-.778-.494-.778-.753 0-.449.449-.684.943-.684a1 1 0 01.884.412c.248.307.459.448.825.342l.553-.153a.525.525 0 00.377-.812 2.813 2.813 0 00-2.673-1.47c-1.707 0-3.024.987-3.024 2.529.024 1.508 1.611 2.143 2.306 2.367l1 .365c.613.2.813.5.813.8 0 .483-.459.754-1.143.754a1.522 1.522 0 01-1.354-.647c-.212-.342-.411-.5-.776-.412l-.588.14a.549.549 0 00-.459.778 3.166 3.166 0 003.178 1.824m-7.711-.13h.894a.577.577 0 00.636-.636v-6.968a.577.577 0 00-.636-.636h-.894a.571.571 0 00-.635.636v6.969a.571.571 0 00.635.636m-7.441.13a3.221 3.221 0 003.485-3.284v-4.45a.572.572 0 00-.636-.636h-.882a.572.572 0 00-.636.636v4.45a1.3 1.3 0 01-1.331 1.413 1.287 1.287 0 01-1.319-1.413v-4.45a.572.572 0 00-.636-.636h-.891a.572.572 0 00-.636.636v4.45a3.214 3.214 0 003.484 3.284m-10.5-1.871a2.384 2.384 0 112.237-2.379 2.242 2.242 0 01-2.237 2.379m0 1.871a4.252 4.252 0 10-4.4-4.25 4.207 4.207 0 004.4 4.25m-11.5-.13h4.6a.572.572 0 00.636-.636v-.576a.571.571 0 00-.636-.634h-3.073v-5.759a.576.576 0 00-.634-.636h-.895a.572.572 0 00-.636.636v6.969a.572.572 0 00.636.636"/></g></g><g data-name="Group 9" fill="#fff"><path data-name="Path 24" d="M71.155 47.483a3.239 3.239 0 00-.942-.661c-.2-.091-.372-.219-.576-.3a4.833 4.833 0 00-.665-.192l-1.208-.285a4.141 4.141 0 01-.591-.143 2.586 2.586 0 00-.4-.154c-.743-.17-1.514-.2-2.243-.429-.218-.069-.435-.069-.656-.13a1.685 1.685 0 01-.946-.749c-.084-.127-.215-.306-.119-.447s.365-.17.533-.174c.36-.011.755.064 1.108.018.307-.04.6-.069.918-.088a5.385 5.385 0 002.135-.478 17.03 17.03 0 003.209-1.918.737.737 0 00.3-.555 4.614 4.614 0 00-.017-1.3 3.825 3.825 0 00-1.54-2.383c-.4-.253-.73-.609-1.141-.85-.429-.252-.9-.447-1.354-.659a5.079 5.079 0 00-1.8-.609l-1.318-.232a2.308 2.308 0 01-1-.239c.008-.1-.009-.2.092-.285.572-.45 1.2-.821 1.759-1.3.439-.375 1.069-.631 1.109-1.263a2.624 2.624 0 00-.323-1.707 6.641 6.641 0 00-.6-.894 2.952 2.952 0 00-.791-.6c-.278-.147-.556-.308-.839-.449a6.8 6.8 0 00-1.98-.6q-.363-.056-.727-.082a4 4 0 01-.686-.05 6.13 6.13 0 00-1.46-.178c-.69-.016-1.369.13-2.054.121-.587-.007-1.172.125-1.764.1a8.778 8.778 0 00-1.4.049.533.533 0 01-.583-.271c-.17-.4.159-.633.4-.883.283-.291.548-.6.81-.909a19.479 19.479 0 011.6-1.788c1.253-1.165 2.608-2.212 3.86-3.382a37.717 37.717 0 002.839-2.943 23.343 23.343 0 001.551-1.871c.195-.279.3-.612.511-.871a10.874 10.874 0 00.772-1.072 9.282 9.282 0 01.756-1.135 1.971 1.971 0 00.425-.694 2.167 2.167 0 01.38-.674 1.993 1.993 0 00.274-.418 3.356 3.356 0 01.209-.562 3.4 3.4 0 00.333-.514c.2-.431.336-.886.522-1.322a1.085 1.085 0 00-.245-1.237c-1.024-1.116-2.024-2.256-3.051-3.371a1.225 1.225 0 00-.524-.311c-.489-.158-.793.18-1.159.346a8.925 8.925 0 00-2.961 1.6c-.377.39-.772.763-1.132 1.17-.326.367-.609.765-.923 1.141-.062.076-.119.157-.176.238a9.2 9.2 0 00-.758 1.4c-.159.339-.305.681-.436 1.031-.19.509-.348 1.017-.5 1.539-.093.327-.232.638-.314.965-.088.35-.174.7-.257 1.055a10.9 10.9 0 00-.194 1.139 3.475 3.475 0 01-.279.775 1.958 1.958 0 01-2.606 1.1 1.776 1.776 0 01-.713-.963 9.888 9.888 0 01-.211-.985 8.782 8.782 0 01-.194-.83c-.02-.118-.039-.238-.049-.357s-.006-.257 0-.383c.006-.241.036-.488.031-.726.081-.658.2-1.316.232-1.978a18.632 18.632 0 01.379-2.994 1.889 1.889 0 00.039-.379 1.541 1.541 0 00-1.219-1.514 2.178 2.178 0 00-.574-.025c-.235.008-.473-.026-.712-.01a3.241 3.241 0 00-1.41.418 1.67 1.67 0 00-.375.249 2.382 2.382 0 00-.209.373c-.167.276-.37.526-.534.8a5.57 5.57 0 00-.562 3.144 1.293 1.293 0 00.055.363c.091.259.227.5.314.761.1.292.168.592.266.883q.24.717.511 1.42c.18.471.37.936.566 1.4.128.3.209.6.349.9.632 1.357 1.222 2.727 1.821 4.105a15.738 15.738 0 01.861 2.232c.033.128.236.438.1.555a.181.181 0 01-.094.037.94.94 0 01-.239.015.194.194 0 01-.182-.112 3.42 3.42 0 00-.429-.625 4.024 4.024 0 00-.651-.508c-.445-.286-.928-.511-1.379-.791-.163-.1-.292-.229-.448-.334a2.1 2.1 0 00-.668-.251 5.571 5.571 0 00-.562-.107q-.674-.106-1.351-.188a5.355 5.355 0 00-1.249-.094 24.981 24.981 0 01-2.6.291 2.933 2.933 0 01-.218-2.009 21.319 21.319 0 00.117-2.145c0-.3.1-.582.1-.89a4.244 4.244 0 01.066-1.01c.039-.154.1-.3.138-.454.048-.2.035-.406.094-.605a4.037 4.037 0 00.1-.687 14.885 14.885 0 01.265-1.564l.069-.284a2.025 2.025 0 01.151-.556c.084-.134.216-.22.277-.377a4.631 4.631 0 00.253-.819 4.7 4.7 0 01.278-.8 3.221 3.221 0 01.1-.343 2.117 2.117 0 00.151-.336 3.648 3.648 0 01.158-.452 4.908 4.908 0 01.614-1.3c.11-.132.237-.252.337-.392a1.322 1.322 0 00.166-.473 2.225 2.225 0 01.259-.432 2.412 2.412 0 00.264-.527 5.406 5.406 0 01.8-1.427 7.125 7.125 0 00.6-.849 1.67 1.67 0 01.591-.788c.222-.132.442-.178.418-.5s-.287-.384-.543-.433c-.332.047-.454.318-.585.59a2.036 2.036 0 01-.24.327c-.114.158-.148.383-.27.55-.06.086-.151.157-.209.242a2.426 2.426 0 00-.1.248 3.632 3.632 0 01-.222.3c-.093.141-.183.282-.274.423s-.138.291-.235.413a5.3 5.3 0 00-.344.5c-.029.046-.058.091-.085.137s-.049.078-.07.119a4.759 4.759 0 00-.316.957 2.838 2.838 0 01-.2.432c-.1.218-.195.426-.313.635q-.469.825-.854 1.7c-.1.237-.174.508-.3.733a1.84 1.84 0 00-.3.8 3.578 3.578 0 01-.116.474 3.351 3.351 0 01-.131.473c-.039.079-.089.152-.128.231a2.067 2.067 0 00-.1.244l-.223.622a4.078 4.078 0 00-.264 1.216 4 4 0 01-.155.681 4.648 4.648 0 01-.152.644c-.122.523-.245 1.048-.318 1.58-.019.132-.033.266-.062.4s-.071.258-.1.388a3.553 3.553 0 00-.033.8 6.016 6.016 0 01-.07.8 16.252 16.252 0 00-.16 1.635 3.742 3.742 0 01-.035 1.294.811.811 0 01-.668.531 2.647 2.647 0 00-1.165.313 1.448 1.448 0 01-.4.174.953.953 0 01-.972-.367c-.533-.694-.748-1.552-1.242-2.261a1.556 1.556 0 01-.114-.364l-.121-.388c-.073-.235-.158-.448-.239-.677-.172-.49-.35-.975-.5-1.471-.171-.547-.312-1.1-.533-1.629-.043-.105-.108-.207-.15-.312a2.1 2.1 0 01-.065-.4 8.05 8.05 0 00-.18-.806c-.056-.2-.123-.4-.19-.6-.059-.169-.079-.357-.124-.533a5.2 5.2 0 01-.15-.871 4.892 4.892 0 00-.056-.651 3.954 3.954 0 00-.16-.486 2.766 2.766 0 01-.2-.876 6.265 6.265 0 00-.163-.795 3.707 3.707 0 01-.019-.584 9.364 9.364 0 00-.061-1.9 10.612 10.612 0 01-.052-1.46 13.008 13.008 0 01.013-1.76 5.633 5.633 0 01.092-.712c.019-.088.137-.364-.04-.37-.239-.007-.38.461-.451.629a3.308 3.308 0 00-.117.343l-.121.4a12.257 12.257 0 00-.357 1.383 6.168 6.168 0 00-.03 1.946c.094.647.022 1.3.079 1.956a7.646 7.646 0 00.115.8 13.013 13.013 0 00.426 1.653c.078.237.088.458.147.7a5.5 5.5 0 01.179.828 4.643 4.643 0 00.177.751q.1.376.217.745c.111.347.233.69.344 1.036a4.968 4.968 0 01.155.578c.028.144.045.29.066.433a4.675 4.675 0 00.417 1.512 2.754 2.754 0 01.147.439q.326 1.018.654 2.034a1.514 1.514 0 00.122.307c.084.145.248.264.307.421.051.132.049.29.1.429a2.951 2.951 0 00.51.895c.11.132.285.452.2.631a.389.389 0 01-.169.157c-.184.106-.393.164-.583.259-.173.088-.33.206-.5.3a9.656 9.656 0 01-1.252.491 7.489 7.489 0 00-1.217.655 5.124 5.124 0 00-.441.307c-.29.233-.526.524-.794.783-.178.173-.373.331-.566.49a1.72 1.72 0 01-.279.2 1.154 1.154 0 01-.573.117 2.632 2.632 0 00-.559-.044c-.119.026-.244.1-.356 0a.389.389 0 01-.078-.357q.185-.639.373-1.278c.113-.395.192-.785.308-1.178a3.869 3.869 0 01.192-.548c.073-.156.167-.3.24-.46a4.957 4.957 0 00.356-1.438 4.637 4.637 0 00.106-.606l.157-.86a1.872 1.872 0 00.053-.389c0-.141-.027-.281-.02-.423.012-.228.033-.457.062-.683a5.019 5.019 0 00.087-.929 5.482 5.482 0 00-.087-.665 8.628 8.628 0 00-.269-1.206c-.121-.352-.1-.725-.215-1.085-.106-.343-.257-.67-.379-1.007-.285-.789-.4-1.627-.724-2.4a.311.311 0 00-.042-.1 4.813 4.813 0 00-2.093-2.761 9.728 9.728 0 01-1.942-1.379c-.288-.311-1.141-1.376-1.561-.709-.105.166-.224.32-.057.5a22.1 22.1 0 011.7 2.162 7.949 7.949 0 00.5 1.511 2.235 2.235 0 01.079.759l.026.87a4.145 4.145 0 01-.013.608 4.052 4.052 0 01-.158.65c-.1.31-.173.631-.285.935a7.594 7.594 0 01-.405.772 17.2 17.2 0 01-1.305 2.001c-.034.049-.207.1-.265.14a1.856 1.856 0 00-.235.2 3.362 3.362 0 01-.422.435c-.132.091-.294.132-.428.226a3.074 3.074 0 01-.366.279 3.509 3.509 0 01-.714.229 1.016 1.016 0 01-.43.033c-.287-.062-.48-.406-.587-.648a8.937 8.937 0 00-.383-.81c-.069-.125-.175-.245-.232-.373-.048-.105-.075-.226-.119-.334q-.352-.879-.7-1.76a6.672 6.672 0 01-.367-.947 6.766 6.766 0 01-.146-1.013c-.027-.319-.049-.64-.065-.959-.015-.278.023-.549.023-.827.019-.562.036-1.125.091-1.685a4.583 4.583 0 00.034-1.79c-.058-.181-.061-.374-.111-.561a2.114 2.114 0 00-.257-.6 4.444 4.444 0 00-.29-.4l-.769-.981a3.339 3.339 0 00-.753-.683 4.839 4.839 0 00-1.816-.776l-.3-.059a4.479 4.479 0 00-2.3.065 2.982 2.982 0 00-.926.5 9.779 9.779 0 01-.788.638 5.793 5.793 0 00-.92.805 1.869 1.869 0 00-.257.357c-.238.392-.475.785-.7 1.184s-.443.819-.645 1.24a4.111 4.111 0 00-.324.778 1.6 1.6 0 00.032.72 3.479 3.479 0 00.563 1.276 2.721 2.721 0 01.334.514 3.006 3.006 0 00.143.376c.071.117.17.22.252.33q.33.446.657.9a3.372 3.372 0 01.294.458c.053.11.1.224.139.336.113.308.227.615.324.927a8.376 8.376 0 01.183.9 9.356 9.356 0 00.539 1.923c.049.115.039.283.076.408a2.3 2.3 0 00.17.4 6.088 6.088 0 00.477.737q.622.845 1.246 1.687a3.336 3.336 0 01.252.376 3.028 3.028 0 01.176.412 4.738 4.738 0 01.187.625 2.149 2.149 0 00.185.526 7.517 7.517 0 01.277.729q.307.84.645 1.669a2.579 2.579 0 00.209.425c.082.125.185.236.266.361.121.189.158.418.275.6a3.96 3.96 0 01.31.622c.186.449.343.91.526 1.361a14.958 14.958 0 00.957 1.868c.316.539.568 1.119.88 1.669a8.381 8.381 0 00.665 1.044c.5.634 1.162 1.116 1.616 1.789s-.292.452-.675.316a6.584 6.584 0 01-1.206-.6c-.608-.373-1.184-.8-1.819-1.126-.59-.3-1.226-.444-1.831-.7a9.941 9.941 0 00-2.78-.877 9.716 9.716 0 00-3.212.239 3.182 3.182 0 00-1.311.579 1.845 1.845 0 00-.351 2.066 6.386 6.386 0 00.43 1.043 2.113 2.113 0 001.039.805 13.511 13.511 0 004.49 1.115 19.5 19.5 0 012.143.16c1.244.275 2.493.4 3.726.732q1.193.32 2.382.654c.4.112.791.232 1.188.339.375.1.386.253.318.6-.08.422-.148.838-.255 1.256l-.181.706a7.648 7.648 0 01-.358 1.023 1.9 1.9 0 01-.218.526c-.132.119-.235 0-.414-.058a4.241 4.241 0 00-2.13.066c-.692.14-1.4.251-2.079.423-.325.082-.644.187-.972.257a6.627 6.627 0 01-.906.058 23.849 23.849 0 00-2.418.414c-2.186.384-4.358.808-6.548 1.176a21.054 21.054 0 01-3.482.412.609.609 0 01-.4-.082.308.308 0 01-.1-.333c.1-.282.478-.559.7-.745l.972-.824.729-.563c.632-.369 1.25-.751 1.888-1.108a20.376 20.376 0 013.974-1.766 8.2 8.2 0 012.1-.449c1-.026 1.994-.148 2.993-.082a29.189 29.189 0 015.819 1.3c.2.055.377.049.41-.189.069-.5-.007-1.394-.647-1.489-.958-.143-1.926-.388-2.872-.592a27.129 27.129 0 00-3.017-.515 12.31 12.31 0 00-5.564.65 27.9 27.9 0 00-4.471 2.131 19.085 19.085 0 00-2.234 1.412A12.525 12.525 0 00.205 44.5a.914.914 0 00-.187.327c-.062.253.244.624.368.834.03.216.217.342.317.517.821 1.442 2.788.852 4.1.6q1.749-.335 3.493-.688a15.79 15.79 0 011.668-.327 7.573 7.573 0 011.657-.142.6.6 0 01.065.227.134.134 0 01-.007.071c-.081.172-.487.232-.647.291-.256.095-.513.195-.766.3q-.739.3-1.457.654c-.45.219-.9.448-1.331.7a13.087 13.087 0 00-1.484 1.185c-.244.2-.5.38-.721.6-.114.11-.221.227-.325.346l-.771.863a10.846 10.846 0 00-.787.951c-.43.608-.638 1.357-1.067 1.981a6.708 6.708 0 00-.435.627 7.02 7.02 0 00-.324.938l-.668 1.949a1.293 1.293 0 00-.1.45c.013.46.544.936.857 1.216.05.043.085.108.132.158.521.528.89-.205 1.2-.533.377-.4.73-.831 1.119-1.213a13.321 13.321 0 011.354-1.055q1.5-1.132 3.079-2.166a11.181 11.181 0 011.593-.909c.588-.262 1.175-.522 1.741-.829.229-.124.456-.248.692-.359.687-.326 1.42-.543 2.133-.808a22.649 22.649 0 014.5-1.577c.177-.027.363-.073.472.11a.4.4 0 01.045.135 3.866 3.866 0 01-.187 1.38c-.068.377.06.805.033 1.207a4.243 4.243 0 01-.194 1.173c-.157.426-.6.442-1 .447a6.014 6.014 0 00-1.143.151c-.3.063-.6.077-.894.125a14 14 0 00-2.1.617 23 23 0 00-4.053 1.766 20.315 20.315 0 00-2.518 1.844 8.554 8.554 0 00-1.983 2.208 1.656 1.656 0 00-.186.375 1.152 1.152 0 00-.049.312 3.81 3.81 0 00.92 2.123 9.41 9.41 0 001.606 1.589 2.119 2.119 0 001.333.591 5.178 5.178 0 001.495-.349 8.109 8.109 0 002.624-1.493c.557-.475 1.161-.9 1.685-1.409a6.567 6.567 0 01.734-.743 3.424 3.424 0 00.79-.753c.11-.147.206-.3.317-.448a6.354 6.354 0 01.667-.725l1.371-1.347c.111-.108.271-.226.407-.151a.37.37 0 01.139.3l.079.628c.065.51.006 1 .036 1.5a4.64 4.64 0 00.177 1.157 2.018 2.018 0 01.078.392c.057.448.116.894.2 1.338a6.808 6.808 0 00.279 1.288c.248.634.432 1.274.69 1.9.271.66.576 1.305.9 1.941.238.471.486.935.739 1.4a5.235 5.235 0 00.268.511 2.321 2.321 0 00.564.453 1.584 1.584 0 00.852.194 2.343 2.343 0 00.957-.176 2.954 2.954 0 001.077-.938 1.309 1.309 0 01.278-.216c.172-.112.343-.342.56-.251a1.738 1.738 0 01.539.531 1.318 1.318 0 01.1.166c.581.957 1.256 1.319 2.064.931a6.054 6.054 0 001.361-.879 2.386 2.386 0 00.926-1.26 3.9 3.9 0 01.058-.522.436.436 0 01.356-.357.457.457 0 01.343.194 2.57 2.57 0 01.286.5 6.089 6.089 0 001.442 2.028 2.369 2.369 0 001.3.586 2.8 2.8 0 00.413-.021 2.96 2.96 0 001.289-.426 3.583 3.583 0 00.934-.977 5.333 5.333 0 001.029-2.048 5.248 5.248 0 00.06-.71c.038-.948.059-1.9.145-2.846.023-.261.149-.542.193-.805.046-.283.079-.568.125-.85s.084-.539.147-.8a6.326 6.326 0 01.287-.779 3.883 3.883 0 01.74-1.47 1.8 1.8 0 01.8-.506 4.934 4.934 0 011.1-.32c.5-.012.991-.086 1.489-.111.228-.012.442.025.666.023a6.5 6.5 0 013.009.687c.7.347 1.127 1.067 1.759 1.507a5.494 5.494 0 002.293.713c.868.141 1.75.22 2.607.427a6.451 6.451 0 001.981.129 19.939 19.939 0 012.315-.225 7.655 7.655 0 003.337-.785 8.835 8.835 0 002.518-1.939 1.3 1.3 0 00.344-1.434c-.169-.554-.6-.779-1.063-1.056a4.33 4.33 0 00-1.76-.55 12.506 12.506 0 00-2.1.009 15.619 15.619 0 01-3.7-.046c-.147-.027-.376.058-.417-.109-.035-.132.124-.285.224-.423a10.726 10.726 0 012.07-1.823 8.279 8.279 0 012.979-1.577 11.183 11.183 0 013.39-.267 13.144 13.144 0 003.262.01 6.878 6.878 0 002.41-.687 2.338 2.338 0 001.282-1.7 1.9 1.9 0 00-.134-.73c-.076-.2-.111-.406-.186-.609a3.181 3.181 0 00-.708-1.142M52.763 22.991a13.4 13.4 0 01-.605-1.485 8.741 8.741 0 00-.448-1.1c-.15-.354-.356-.681-.5-1.047a26.082 26.082 0 00-1.12-2.5c-.195-.379-.464-.747-.631-1.136-.18-.418-.272-.9-.419-1.329-.154-.448-.369-.889-.5-1.341-.242-.85-.412-1.73-.634-2.59a2.547 2.547 0 01.311-2.1 1.813 1.813 0 011.432-.907c.326 0 .416.087.452.4.04.346 0 .694.034 1.033a6.178 6.178 0 01.015 1.187 5.379 5.379 0 01-.108.918 4.979 4.979 0 00-.193.946 7.886 7.886 0 00.258 2.33 8.312 8.312 0 00.75 2.19c.027.052.058.1.086.152a3.829 3.829 0 002.088 1.767 3.1 3.1 0 002.573-.416 2.706 2.706 0 00.87-1.225 4.266 4.266 0 00.318-.979c.033-.176.048-.35.067-.527a2.7 2.7 0 01.115-.421c.194-.732.305-1.485.562-2.2.333-.919.583-1.865.986-2.761a8.312 8.312 0 01.79-1.2 10.856 10.856 0 01.913-1.1 6.314 6.314 0 013.208-2.188 1.652 1.652 0 011.658.337 6.212 6.212 0 011.095 1.248 2.727 2.727 0 01.323.765 1.376 1.376 0 01-.181.861 2.584 2.584 0 01-.5.741 6.7 6.7 0 00-.578.85c-.154.246-.265.535-.436.765-.054.075-.121.141-.178.215a2.938 2.938 0 00-.305.586 3.413 3.413 0 01-.329.512 97.7 97.7 0 00-.785 1.158 14.429 14.429 0 01-1.76 2.309c-.247.243-.482.5-.718.749-.209.223-.373.478-.583.7-.253.268-.544.487-.784.766a9.781 9.781 0 01-.942.882q-.759.69-1.54 1.353a16.412 16.412 0 01-1.435 1.257.936.936 0 00-.271.225 6.49 6.49 0 01-.8.818 3.63 3.63 0 01-.85.691c-.111.053-.174.157-.294.2-.26.1-.394-.145-.481-.354M9.317 5.938c.027-.049.058-.1.088-.144a4.515 4.515 0 01.83-.863 10.158 10.158 0 01.9-.739 3.3 3.3 0 011.849-.641 4.725 4.725 0 011.837.4 2.2 2.2 0 01.6.472 4.874 4.874 0 01.462.493 3.06 3.06 0 01.534 1.393 6.365 6.365 0 01.052 1.59 13.147 13.147 0 00-.006 1.613 2.016 2.016 0 01-.012.339c-.014.105-.045.206-.069.31a3.291 3.291 0 00-.02 1.484 3.36 3.36 0 01.11.88 2.386 2.386 0 00.308.841 2.249 2.249 0 01.189.609c.014.139 0 .278.03.413a1.457 1.457 0 00.1.3 10.237 10.237 0 00.925 1.769c.233.342.36.745.569 1.1.092.156.2.3.305.448a1.85 1.85 0 00.708.7 1.646 1.646 0 00.922.047 6.256 6.256 0 001.246-.4 2.754 2.754 0 001.041-.679c.149-.16.277-.339.431-.494.429-.434 1.036-.644 1.324-1.22.023-.046.046-.093.071-.14a.221.221 0 00.046-.08.588.588 0 01.156-.178 2.518 2.518 0 00.359-.464 3.289 3.289 0 00.345-.528 3.87 3.87 0 00.191-.6c.081-.248.166-.494.248-.742a4.728 4.728 0 00.275-1.129 4.646 4.646 0 00-.03-.779 10.716 10.716 0 00-.132-1.423 1.157 1.157 0 00-.231-.513.9.9 0 01-.187-.562c.006-.376.33-.347.591-.19.926.556 1.208 1.887 1.482 2.843.261.908.542 1.809.812 2.715.135.454.277.907.372 1.373s.055.918.144 1.36a6.164 6.164 0 01.017 1.41 10.339 10.339 0 01-.147 1.394 9.132 9.132 0 01-.148 1.168 7.189 7.189 0 01-.447 1.029c-.121.241-.248.448-.346.7a9.51 9.51 0 00-.289.909c-.14.52-.25 1.049-.412 1.563a6.674 6.674 0 01-.376 1.291 6.715 6.715 0 00-.367.922c-.151.419-.351.811-.514 1.222a11.338 11.338 0 00-.636 2.514 4.6 4.6 0 01-.135.654c-.043.144-.1.284-.155.422a1.286 1.286 0 01-.141.347l-.167.409a5.076 5.076 0 01-.337.72c-.185.311-.32.648-.474.975a3.591 3.591 0 01-.421.83.633.633 0 01-.125.117.705.705 0 01-.456.069c-.349-.03-.53-.287-.76-.514s-.484-.461-.736-.68a6.678 6.678 0 01-.528-.422 5.227 5.227 0 01-.446-.545c-.275-.373-.526-.766-.834-1.115a4.774 4.774 0 01-.605-.7 5.909 5.909 0 00-.469-.812c-.111-.135-.239-.255-.35-.389a4.423 4.423 0 01-.562-1.034 17.164 17.164 0 00-.923-1.771 3.913 3.913 0 01-.236-.72c-.1-.282-.257-.541-.368-.821q-.278-.7-.559-1.4c-.085-.215-.206-.4-.278-.617a7.075 7.075 0 01-.2-.7c-.045-.19-.08-.383-.137-.568a5.733 5.733 0 00-.5-1.092 33.786 33.786 0 00-1.165-2.021 36.103 36.103 0 01-1.041-1.77 28.19 28.19 0 01-.257-.454 4.071 4.071 0 01-.447-.808c-.062-.228-.069-.469-.147-.7-.092-.274-.062-.582-.167-.849a5.519 5.519 0 01-.209-.714 11.2 11.2 0 00-.559-1.684 10.2 10.2 0 00-.452-.988c-.185-.33-.449-.6-.66-.915s-.413-.666-.609-1a2.05 2.05 0 01-.34-1.152c0-.251.01-.5.014-.752a.811.811 0 01.016-.171.836.836 0 01.064-.16c.151-.308.285-.625.434-.934.1-.215.2-.458.321-.672m8.576 49.917a2.61 2.61 0 01.923-.081c.331.1.274.419.082.634a24.733 24.733 0 01-2.185 2.267 16.129 16.129 0 00-1.38 1.178q-.642.7-1.294 1.39-.355.376-.713.746a6.66 6.66 0 01-.968.867 6.853 6.853 0 01-.843.471c-.505.255-1.04.482-1.53.767a1.936 1.936 0 01-1.985-.023 2.26 2.26 0 01-.9-.817 1.645 1.645 0 01-.119-1.3c.02-.107.042-.212.072-.316a3.9 3.9 0 011.27-1.628 9.52 9.52 0 011.768-1.379c.776-.443 1.64-.713 2.425-1.142a6.636 6.636 0 011.394-.67 7.088 7.088 0 00.726-.193c.277-.107.557-.2.839-.288a12.774 12.774 0 012.418-.483m.585-9.216a4.821 4.821 0 011.12.2c.135.043.287.109.329.246a.318.318 0 01-.1.313.954.954 0 01-.3.169c-1.151.467-2.319.912-3.463 1.371a42.54 42.54 0 00-.878.363q-.853.363-1.692.759-1.677.791-3.291 1.71c-.307.174-.535.408-.831.585s-.613.292-.916.44a18.713 18.713 0 00-1.769.875 15.241 15.241 0 00-1.519 1.148 4.389 4.389 0 01-1.545 1.037c-.516.1-.1-1.034-.023-1.228a11.874 11.874 0 011.367-2.4 9.53 9.53 0 01.426-.572 6.962 6.962 0 011.484-1.361 22.4 22.4 0 012.211-1.54c.8-.413 1.658-.689 2.469-1.071a9.231 9.231 0 011.151-.511 5.9 5.9 0 01.811-.183 24.655 24.655 0 013.142-.331 16.251 16.251 0 011.814-.017m2.686-9.754c.264.115.986.334.943.709a9.319 9.319 0 01-1.951-.441c-1.156-.268-2.264-.7-3.431-.906l-1.876-.333c-.589-.105-1.144-.13-1.734-.187s-1.174-.121-1.759-.207a13.555 13.555 0 01-3.343-.886c-.262-.114-.883-.406-.836-.778.032-.252.478-.5.674-.618a4.132 4.132 0 011.263-.3 11.54 11.54 0 012.017-.164 7.074 7.074 0 011.974.439 11.242 11.242 0 011.533.423c.331.159.716.274 1.056.465.384.216.732.493 1.109.723a10.163 10.163 0 00.959.5c1.129.532 2.26 1.064 3.405 1.561m36.849 15.14a11.763 11.763 0 00-2.182 1.574 5.751 5.751 0 01-1.051.689q-.568.365-1.113.763a7.651 7.651 0 00-.653.522c-.147.134-.285.278-.442.4-.454.359-1.03.537-1.462.929a.98.98 0 00.075 1.505c.078.075.154.152.226.232.229.258.375.6.624.834a1.356 1.356 0 00.949.3 31.728 31.728 0 004.589-.631 15.7 15.7 0 001.783-.408 15.925 15.925 0 011.855-.363 4.833 4.833 0 01.749-.075 4.58 4.58 0 01.832.108c.262.048.523.1.785.148a.565.565 0 01.252.092.368.368 0 01.076.423.889.889 0 01-.3.34 4.454 4.454 0 01-1.447.677 6.977 6.977 0 01-.684.155c-.29.051-.582.081-.874.112l-1.776.189c-.56.06-1.122.148-1.685.2a5.957 5.957 0 01-1.356-.119c-.972-.142-1.932-.358-2.9-.524a8.377 8.377 0 01-3.343-1.029 15.489 15.489 0 00-1.458-.828 4.532 4.532 0 00-1.361-.451c-.447-.071-.893-.026-1.34-.076a9.2 9.2 0 00-2.9.05 5.286 5.286 0 00-1.291.439 3.381 3.381 0 00-1.228.944 3.417 3.417 0 00-.268.469 11.443 11.443 0 00-.878 2.518 49.64 49.64 0 00-.626 5.492 5.042 5.042 0 01-.344 1.71 2.468 2.468 0 01-.449.759c-.226.181-.557.291-.8.455-1.207.812-1.962-1.03-2.331-1.854q-.142-.32-.285-.637a12.194 12.194 0 01-.614-1.324c-.137-.449-.258-.911-.4-1.361a1.269 1.269 0 00-.848-.929c-.251-.075-.505-.248-.742-.034a.769.769 0 00-.187.826 4.364 4.364 0 01.143 1.688 11.781 11.781 0 00.055 1.557c0 .418-.164.544-.435.822a3.262 3.262 0 01-.714.643c-.362.2-.775.56-1.191.317-.454-.265-.648-.988-.8-1.463a5.872 5.872 0 00-.2-.581c-.139-.313-.355-.586-.489-.9a5.779 5.779 0 01-.231-1.041 8.862 8.862 0 00-.207-.824 4.255 4.255 0 01-.1-.9c-.01-.112-.019-.226-.036-.337a.992.992 0 00-.185-.563 2.073 2.073 0 00-1.153-.644c-.559-.1-.4.817-.41 1.125a3.277 3.277 0 00.038.752c.066.321.227.615.315.932a4.329 4.329 0 01.11.654l.106.935a3.541 3.541 0 01-.264 2.271 1.381 1.381 0 01-.767.627.839.839 0 01-.885-.308 14.637 14.637 0 01-1-1.961c-.046-.111-.092-.223-.145-.333-.089-.177-.2-.343-.3-.515a6.8 6.8 0 01-.629-1.76c-.141-.581-.218-1.174-.346-1.759-.046-.218-.046-.442-.112-.657-.079-.255-.217-.488-.289-.747a3.4 3.4 0 01-.088-.618c-.038-.4-.13-.789-.19-1.185-.055-.357-.053-.742-.089-1.106-.092-.9-.106-1.845-.281-2.728a8.343 8.343 0 01.002-2.422c.1-1.067.069-2.142.181-3.208.048-.454.2-.859.265-1.3a14.353 14.353 0 00.229-2.265 3.727 3.727 0 01.236-1.335c.115-.307.17-.621.268-.931a5.185 5.185 0 00.259-.979c.03-.267.143-.5.173-.768a14.285 14.285 0 011.16-4.282 12.964 12.964 0 00.9-2.173c.086-.349.14-.706.246-1.049a5.594 5.594 0 01.517-1.011q.629-1.153 1.26-2.3c.139-.251.275-.5.389-.767.1-.237.18-.482.3-.71a4.358 4.358 0 01.617-.814 2.039 2.039 0 01.637-.561c.248-.112.527-.058.791-.156a2.993 2.993 0 00.917-.64c.261-.235.578-.37.827-.637a4.59 4.59 0 01.661-.662 3.359 3.359 0 00.543-.377 7.636 7.636 0 011.282-.868 10.08 10.08 0 011.611-.988 12.648 12.648 0 012.512-1.008 4.249 4.249 0 001.145-.307 4.51 4.51 0 01.439-.243 2.092 2.092 0 01.524-.106 17.054 17.054 0 002.631-.662 9.644 9.644 0 012.62-.386 9.521 9.521 0 013.255.615.868.868 0 01.154.085 6.7 6.7 0 011.475 1.254 9.245 9.245 0 011.03 1.724 9.1 9.1 0 01.68 1.461c.082.251.143.51.242.755a2.355 2.355 0 00.991 1.169c.713.409 1.334.16 2.083.109.87-.057 1.744-.02 2.613-.1a7.789 7.789 0 011.523 0 12.787 12.787 0 001.836.125 6.115 6.115 0 012.9.71c.347.171.675.5.344.872a7.645 7.645 0 01-2.414 1.726 9.181 9.181 0 00-1.459.778 1.683 1.683 0 00-.608 1.068 2.478 2.478 0 00-.082.723 1.273 1.273 0 00.477 1.134 1.732 1.732 0 001.256.108 8.431 8.431 0 011.584-.014 19.937 19.937 0 013.153.579 8.15 8.15 0 012.142.855 9.282 9.282 0 01.98.648 2.675 2.675 0 01.691.66.438.438 0 01-.062.436 1.3 1.3 0 01-.351.3 9.511 9.511 0 01-2.405.932 5.577 5.577 0 01-1.189.37 9.408 9.408 0 01-1.383-.017q-1.046-.056-2.093-.043c-.353 0-.67.073-1.011.105a7.9 7.9 0 01-1.3-.092q-1.341-.1-2.686-.178a16.924 16.924 0 01-1.982-.124c-.412-.074-.792.015-.8.514a3.358 3.358 0 00.261 1.652.92.92 0 00.775.56 2.378 2.378 0 01.752.239 11.554 11.554 0 012.869 1.764 3.71 3.71 0 001.948 1.1 5.162 5.162 0 011.109.244 4.617 4.617 0 001.113.088c.861.056 1.716.193 2.569.33l2.113.343a6.748 6.748 0 012.829 1 .2.2 0 01.108.1c.023.075-.047.144-.114.185a2.025 2.025 0 01-.6.213 17.214 17.214 0 01-4.59.6c-.984-.036-1.961-.214-2.944-.228a5.107 5.107 0 00-2.295.432 5.775 5.775 0 00-.9.666q-.554.413-1.134.785"/><path data-name="Path 26" d="M34.604 30.241a.57.57 0 00-.168-.168.67.67 0 00-.244-.119.453.453 0 00-.561.4.351.351 0 00.015.2.476.476 0 00.2.193.486.486 0 00.6.025.412.412 0 00.158-.526"/><path data-name="Path 27" d="M35.75 36.416c.251.006.343-.255.318-.465a.611.611 0 00-.563-.506c-.233-.023-.309.165-.292.34.029.325.169.621.537.631"/><path data-name="Path 28" d="M37.812 30.369a.423.423 0 00.794.2c.165-.323-.114-.5-.388-.559-.255-.052-.395.139-.406.357"/><path data-name="Path 29" d="M39.315 39.988a3.165 3.165 0 01-2.018.278 76.11 76.11 0 00-2.085-.268 13.7 13.7 0 01-1.636-.376 4.161 4.161 0 01-.434-.125 4.465 4.465 0 01-.392-.177c-.144-.071-.6-.194-.361-.375.21-.159.35-.085.58-.017s.454.13.683.184a10.445 10.445 0 001.494.257c.393.035.789.033 1.182.069a5.887 5.887 0 002.738-.108.28.28 0 01.388.171c.043.165.095.356-.14.487"/></g></g></svg>